<?xml version="1.0" encoding="UTF-8"?>
<svg xmlns="http://www.w3.org/2000/svg" xmlns:xlink="http://www.w3.org/1999/xlink" width="88pt" height="16pt" viewBox="0 0 88 16" version="1.1">
<g id="surface1">
<path style=" stroke:none;fill-rule:nonzero;fill:rgb(4.313725%,11.372549%,40.392157%);fill-opacity:1;" d="M 20.1875 4.292969 C 18.878906 4.253906 17.617188 4.78125 16.726562 5.746094 L 16.214844 4.597656 L 13.550781 4.597656 L 13.550781 15.632812 L 17.339844 15.632812 L 17.339844 9.75 C 17.339844 8.335938 18.007812 7.507812 19.191406 7.507812 C 20.148438 7.507812 20.636719 8.148438 20.636719 9.429688 L 20.636719 15.632812 L 24.421875 15.632812 L 24.421875 8.910156 C 24.421875 6.113281 22.734375 4.292969 20.1875 4.292969 Z M 20.1875 4.292969 "/>
<path style=" stroke:none;fill-rule:nonzero;fill:rgb(4.313725%,11.372549%,40.392157%);fill-opacity:1;" d="M 32.820312 4.558594 C 31.519531 4.558594 30.585938 4.925781 29.808594 5.835938 L 29.21875 4.609375 L 26.667969 4.609375 L 26.667969 15.632812 L 30.460938 15.632812 L 30.460938 10.035156 C 30.460938 8.621094 31.03125 8.03125 32.351562 8.03125 L 33.835938 8.03125 L 33.835938 4.558594 Z M 32.820312 4.558594 "/>
<path style=" stroke:none;fill-rule:nonzero;fill:rgb(4.313725%,11.372549%,40.392157%);fill-opacity:1;" d="M 35.402344 15.632812 L 39.179688 15.632812 L 39.179688 4.597656 L 35.402344 4.597656 Z M 35.402344 15.632812 "/>
<path style=" stroke:none;fill-rule:nonzero;fill:rgb(4.313725%,11.372549%,40.392157%);fill-opacity:1;" d="M 46.859375 16 C 49.953125 16 52.316406 13.980469 52.742188 10.996094 L 49.015625 10.996094 C 48.734375 11.953125 47.851562 12.605469 46.859375 12.59375 C 45.539062 12.59375 44.582031 11.554688 44.582031 10.101562 C 44.582031 8.648438 45.539062 7.652344 46.859375 7.652344 C 47.816406 7.628906 48.679688 8.230469 48.996094 9.140625 L 52.703125 9.140625 C 52.273438 6.199219 49.972656 4.257812 46.878906 4.257812 C 43.316406 4.257812 40.792969 6.691406 40.792969 10.101562 C 40.792969 13.511719 43.347656 15.984375 46.855469 15.984375 Z M 46.859375 16 "/>
<path style=" stroke:none;fill-rule:nonzero;fill:rgb(4.313725%,11.372549%,40.392157%);fill-opacity:1;" d="M 61.105469 4.292969 C 60.035156 4.296875 59.003906 4.664062 58.171875 5.335938 L 58.171875 0.617188 L 54.386719 0.617188 L 54.386719 15.632812 L 58.171875 15.632812 L 58.171875 9.75 C 58.171875 8.335938 58.882812 7.507812 60.027344 7.507812 C 61.019531 7.507812 61.46875 8.148438 61.46875 9.429688 L 61.46875 15.632812 L 65.257812 15.632812 L 65.257812 8.992188 C 65.257812 6.132812 63.625 4.292969 61.109375 4.292969 Z M 61.105469 4.292969 "/>
<path style=" stroke:none;fill-rule:nonzero;fill:rgb(4.313725%,11.372549%,40.392157%);fill-opacity:1;" d="M 39.332031 1.816406 C 39.332031 0.8125 38.421875 0 37.296875 0 C 36.175781 0 35.261719 0.8125 35.261719 1.816406 C 35.261719 2.820312 36.175781 3.632812 37.296875 3.632812 C 38.421875 3.632812 39.332031 2.820312 39.332031 1.816406 Z M 39.332031 1.816406 "/>
<path style=" stroke:none;fill-rule:nonzero;fill:rgb(4.313725%,11.372549%,40.392157%);fill-opacity:1;" d="M 11.949219 9.808594 C 11.949219 6.582031 9.503906 4.046875 5.960938 4.046875 C 2.496094 4.046875 0 6.542969 0 9.914062 C 0 13.285156 2.523438 15.796875 5.960938 15.796875 C 8.710938 15.796875 10.949219 14.222656 11.726562 11.707031 L 7.9375 11.707031 C 7.523438 12.394531 6.761719 12.796875 5.960938 12.753906 C 4.761719 12.753906 3.96875 12.097656 3.730469 10.832031 L 11.894531 10.832031 C 11.933594 10.492188 11.953125 10.152344 11.957031 9.808594 Z M 5.960938 7.03125 C 7.03125 6.964844 7.992188 7.679688 8.238281 8.726562 L 3.773438 8.726562 C 3.984375 7.695312 4.914062 6.976562 5.960938 7.03125 Z M 5.960938 7.03125 "/>
<path style=" stroke:none;fill-rule:nonzero;fill:rgb(7.843137%,46.27451%,94.901961%);fill-opacity:1;" d="M 69.550781 3.648438 L 67.363281 15.671875 L 71.714844 15.671875 L 87.984375 3.632812 Z M 69.550781 3.648438 "/>
<path style=" stroke:none;fill-rule:nonzero;fill:rgb(100%,100%,100%);fill-opacity:1;" d="M 68.320312 15.6875 L 71.226562 15.6875 L 72.449219 9.542969 C 72.769531 8.007812 73.828125 7.375 75.273438 7.089844 C 75.628906 7.015625 75.992188 6.964844 76.355469 6.9375 L 76.355469 4.578125 L 76.007812 4.578125 C 74.734375 4.578125 73.625 5.316406 72.988281 6.671875 L 72.929688 6.671875 L 73.3125 4.703125 L 70.507812 4.703125 Z M 68.320312 15.6875 "/>
</g>
</svg>
