<?xml version="1.0" standalone="no"?>
<!DOCTYPE svg PUBLIC "-//W3C//DTD SVG 20010904//EN"
 "http://www.w3.org/TR/2001/REC-SVG-20010904/DTD/svg10.dtd">
<svg version="1.0" xmlns="http://www.w3.org/2000/svg"
 width="512.000000pt" height="512.000000pt" viewBox="0 0 512.000000 512.000000"
 preserveAspectRatio="xMidYMid meet">
<metadata>
Created by potrace 1.14, written by Peter Selinger 2001-2017
</metadata>
<g transform="translate(0.000000,512.000000) scale(0.100000,-0.100000)"
fill="#000000" stroke="none">
<path d="M2477 3744 l-78 -75 3 -55 3 -54 78 72 79 73 -4 57 -3 56 -78 -74z"/>
<path d="M2270 3610 c0 -53 2 -60 20 -60 18 0 20 7 20 60 0 53 -2 60 -20 60
-18 0 -20 -7 -20 -60z"/>
<path d="M2330 3610 c0 -53 2 -60 20 -60 18 0 20 7 20 60 0 53 -2 60 -20 60
-18 0 -20 -7 -20 -60z"/>
<path d="M2478 3513 c-78 -78 -78 -79 -78 -131 0 -51 1 -53 20 -39 11 7 47 40
80 71 l61 58 -3 59 -3 60 -77 -78z"/>
<path d="M2853 3449 c-82 -50 -83 -51 -83 -91 0 -39 1 -40 23 -26 12 8 52 32
90 53 64 37 67 41 67 77 0 21 -3 38 -7 38 -5 0 -45 -23 -90 -51z"/>
<path d="M2140 3417 c-79 -49 -85 -55 -88 -90 -2 -20 -1 -37 3 -37 13 0 168
95 172 106 2 7 3 26 1 43 l-3 32 -85 -54z"/>
<path d="M2270 3370 c0 -53 2 -60 20 -60 18 0 20 7 20 60 0 53 -2 60 -20 60
-18 0 -20 -7 -20 -60z"/>
<path d="M2330 3370 c0 -53 2 -60 20 -60 18 0 20 7 20 60 0 53 -2 60 -20 60
-18 0 -20 -7 -20 -60z"/>
<path d="M2630 3350 c0 -33 3 -40 20 -40 17 0 20 7 20 40 0 33 -3 40 -20 40
-17 0 -20 -7 -20 -40z"/>
<path d="M2700 3350 c0 -33 3 -40 20 -40 17 0 20 7 20 40 0 33 -3 40 -20 40
-17 0 -20 -7 -20 -40z"/>
<path d="M1920 3320 c0 -33 3 -40 20 -40 17 0 20 7 20 40 0 33 -3 40 -20 40
-17 0 -20 -7 -20 -40z"/>
<path d="M1980 3320 c0 -36 3 -40 25 -40 23 0 25 4 25 40 0 36 -2 40 -25 40
-22 0 -25 -4 -25 -40z"/>
<path d="M2858 3307 c-85 -50 -87 -53 -88 -89 0 -21 2 -38 5 -38 13 0 168 95
172 106 2 7 3 26 1 43 l-3 31 -87 -53z"/>
<path d="M2477 3258 l-79 -73 4 -56 3 -57 78 72 78 71 -3 58 -3 59 -78 -74z"/>
<path d="M2133 3257 c-80 -50 -83 -53 -83 -90 0 -43 -8 -45 113 25 65 38 67
40 67 78 0 22 -3 40 -7 39 -5 0 -45 -24 -90 -52z"/>
<path d="M2630 3210 c0 -33 3 -40 20 -40 17 0 20 7 20 40 0 33 -3 40 -20 40
-17 0 -20 -7 -20 -40z"/>
<path d="M2700 3210 c0 -33 3 -40 20 -40 17 0 20 7 20 40 0 33 -3 40 -20 40
-17 0 -20 -7 -20 -40z"/>
<path d="M1920 3165 c0 -38 3 -45 20 -45 17 0 20 7 20 45 0 38 -3 45 -20 45
-17 0 -20 -7 -20 -45z"/>
<path d="M1987 3203 c-4 -3 -7 -24 -7 -45 0 -35 2 -39 23 -36 18 2 23 10 25
46 3 36 0 42 -16 42 -10 0 -22 -3 -25 -7z"/>
<path d="M2858 3148 c-86 -51 -88 -53 -88 -90 0 -21 2 -38 5 -38 2 0 43 23 90
50 84 50 85 51 85 90 0 22 -1 40 -2 40 -2 0 -42 -24 -90 -52z"/>
<path d="M2490 3103 l-85 -88 88 85 c48 46 87 86 87 87 0 8 -11 -3 -90 -84z"/>
<path d="M2270 3120 c0 -53 2 -60 20 -60 18 0 20 7 20 60 0 53 -2 60 -20 60
-18 0 -20 -7 -20 -60z"/>
<path d="M2330 3120 c0 -53 2 -60 20 -60 18 0 20 7 20 60 0 53 -2 60 -20 60
-18 0 -20 -7 -20 -60z"/>
<path d="M2138 3108 c-85 -51 -88 -54 -88 -90 0 -21 2 -38 5 -38 2 0 43 23 90
50 84 50 85 51 85 90 0 22 -1 40 -3 40 -1 0 -41 -24 -89 -52z"/>
<path d="M2482 3037 l-83 -84 3 -52 3 -53 83 78 84 79 -4 58 -3 58 -83 -84z"/>
<path d="M2630 3050 c0 -33 3 -40 20 -40 17 0 20 7 20 40 0 33 -3 40 -20 40
-17 0 -20 -7 -20 -40z"/>
<path d="M2700 3050 c0 -33 3 -40 20 -40 17 0 20 7 20 40 0 33 -3 40 -20 40
-17 0 -20 -7 -20 -40z"/>
<path d="M1920 3010 c0 -33 3 -40 20 -40 17 0 20 7 20 40 0 33 -3 40 -20 40
-17 0 -20 -7 -20 -40z"/>
<path d="M1980 3010 c0 -36 3 -40 25 -40 23 0 25 4 25 40 0 36 -2 40 -25 40
-22 0 -25 -4 -25 -40z"/>
<path d="M2853 2987 c-80 -50 -83 -53 -83 -89 0 -21 2 -38 4 -38 2 0 43 23 90
51 85 50 86 51 86 90 0 21 -3 39 -7 38 -5 0 -45 -24 -90 -52z"/>
<path d="M2138 2948 c-86 -51 -88 -53 -88 -90 0 -21 2 -38 5 -38 2 0 43 23 90
50 84 50 85 51 85 90 0 22 -1 40 -2 40 -2 0 -42 -24 -90 -52z"/>
<path d="M2270 2890 c0 -53 2 -60 20 -60 18 0 20 7 20 60 0 53 -2 60 -20 60
-18 0 -20 -7 -20 -60z"/>
<path d="M2340 2890 c0 -53 2 -60 20 -60 18 0 20 7 20 60 0 53 -2 60 -20 60
-18 0 -20 -7 -20 -60z"/>
<path d="M2630 2890 c0 -33 3 -40 20 -40 17 0 20 7 20 40 0 33 -3 40 -20 40
-17 0 -20 -7 -20 -40z"/>
<path d="M2700 2890 c0 -33 3 -40 20 -40 17 0 20 7 20 40 0 33 -3 40 -20 40
-17 0 -20 -7 -20 -40z"/>
<path d="M1920 2855 c0 -28 4 -35 20 -35 16 0 20 7 20 35 0 28 -4 35 -20 35
-16 0 -20 -7 -20 -35z"/>
<path d="M1982 2853 c2 -31 7 -39 26 -41 20 -3 22 1 22 37 0 37 -2 41 -26 41
-23 0 -25 -3 -22 -37z"/>
<path d="M2853 2828 c-78 -48 -83 -52 -83 -85 l0 -35 30 26 c17 14 57 35 90
47 59 21 60 22 60 60 0 22 -3 39 -7 38 -5 0 -45 -23 -90 -51z"/>
<path d="M2478 2793 c-78 -78 -78 -79 -78 -131 0 -51 1 -53 20 -39 11 7 47 40
80 71 l61 58 -3 59 -3 60 -77 -78z"/>
<path d="M2167 2821 l-58 -38 39 -17 c55 -25 82 -8 82 51 0 24 -1 43 -2 42 -2
0 -29 -17 -61 -38z"/>
<path d="M1775 2786 c-110 -26 -283 -93 -420 -164 l-60 -31 60 -1 c79 0 224
-24 311 -51 146 -45 236 -103 366 -236 l76 -79 81 157 c45 86 81 167 81 180 0
40 -45 122 -85 158 -68 59 -116 75 -240 78 -67 1 -133 -3 -170 -11z"/>
<path d="M2630 2730 c0 -33 3 -40 20 -40 17 0 20 7 20 40 0 33 -3 40 -20 40
-17 0 -20 -7 -20 -40z"/>
<path d="M2700 2730 c0 -33 3 -40 20 -40 17 0 20 7 20 40 0 33 -3 40 -20 40
-17 0 -20 -7 -20 -40z"/>
<path d="M2334 2706 c-3 -7 -4 -35 -2 -62 2 -37 7 -50 21 -52 15 -3 17 5 17
62 0 53 -3 66 -15 66 -9 0 -18 -6 -21 -14z"/>
<path d="M2270 2666 c0 -54 8 -76 26 -76 10 0 14 15 14 60 0 53 -2 60 -20 60
-17 0 -20 -7 -20 -44z"/>
<path d="M3507 2624 l15 -44 60 0 c35 0 58 4 56 10 -1 5 -35 25 -75 44 l-71
34 15 -44z"/>
<path d="M2364 2540 c-33 -22 -67 -46 -77 -54 -13 -10 -23 -47 -37 -127 -11
-62 -18 -115 -15 -117 5 -5 22 2 47 20 25 18 34 2 20 -34 l-12 -32 33 32 c56
54 82 32 41 -34 -35 -58 -29 -64 12 -11 29 37 40 45 50 36 19 -16 17 -43 -6
-81 -25 -41 -26 -61 -1 -29 24 32 56 22 47 -14 -5 -21 -2 -27 20 -37 22 -10
28 -10 38 4 8 11 17 13 27 7 11 -5 23 -3 35 6 18 14 17 17 -31 61 -29 27 -35
35 -15 20 19 -14 48 -33 64 -42 29 -16 31 -16 49 7 19 24 19 24 -9 44 -15 11
-41 33 -58 48 -26 24 -22 22 23 -8 63 -41 91 -42 105 -3 8 24 6 32 -16 55 -14
16 -43 60 -64 98 l-39 70 -5 -35 -5 -35 -28 37 c-23 30 -26 40 -18 57 17 30
13 48 -5 23 -8 -12 -26 -22 -40 -22 -13 0 -24 -5 -24 -10 0 -20 -49 -60 -73
-60 -31 0 -49 18 -37 40 5 9 39 36 74 60 36 23 63 46 60 51 -3 5 2 12 12 16
14 5 13 8 -7 19 -40 22 -74 16 -135 -26z"/>
<path d="M1322 2499 c-40 -34 -71 -63 -70 -65 2 -1 30 4 63 12 87 21 266 29
355 15 41 -7 105 -23 143 -36 85 -29 72 -9 -23 34 -92 43 -259 91 -335 97
l-60 5 -73 -62z"/>
<path d="M3540 2547 c0 -2 7 -24 16 -49 14 -43 17 -46 59 -52 25 -3 57 -9 72
-13 22 -5 13 7 -43 55 -40 34 -79 62 -88 62 -9 0 -16 -1 -16 -3z"/>
<path d="M2791 2368 l74 -147 38 37 c20 20 36 39 35 42 -2 3 -52 52 -112 110
l-108 105 73 -147z"/>
<path d="M3198 2449 c-21 -11 -38 -21 -38 -23 0 -2 24 2 53 10 28 7 63 14 77
15 23 0 23 1 5 9 -31 13 -57 11 -97 -11z"/>
<path d="M1368 2443 c-19 -3 -44 -26 -84 -75 -33 -41 -50 -68 -38 -63 59 26
201 68 291 86 92 19 113 20 185 9 44 -6 92 -16 107 -21 17 -7 23 -7 16 0 -47
46 -339 85 -477 64z"/>
<path d="M2192 2359 c-43 -95 -43 -113 -1 -107 22 3 25 11 36 93 7 49 12 93
10 98 -1 5 -22 -33 -45 -84z"/>
<path d="M3597 2386 c15 -40 22 -46 79 -68 l62 -24 -55 68 c-40 49 -62 68 -79
68 l-23 0 16 -44z"/>
<path d="M3228 2393 c7 -3 16 -2 19 1 4 3 -2 6 -13 5 -11 0 -14 -3 -6 -6z"/>
<path d="M830 1715 l0 -275 180 0 180 0 0 30 0 30 -150 0 -151 0 3 98 3 97 80
-3 c44 -2 104 -1 132 3 47 6 53 9 53 30 0 24 0 24 -132 27 l-133 3 -3 88 -3
87 146 0 145 0 0 30 0 30 -175 0 -175 0 0 -275z"/>
<path d="M1290 1715 l0 -275 35 0 34 0 3 142 3 141 130 -141 130 -142 49 0 48
0 -141 149 -141 149 134 123 133 124 -44 3 c-44 3 -44 3 -171 -118 l-127 -122
-3 121 -3 121 -34 0 -35 0 0 -275z"/>
<path d="M1780 1715 l0 -277 148 4 c128 3 152 6 188 25 57 30 111 97 129 157
41 139 -10 272 -129 333 -47 25 -63 27 -193 31 l-143 4 0 -277z m267 204 c58
-15 117 -70 132 -124 24 -88 8 -180 -42 -234 -41 -45 -93 -61 -199 -61 l-98 0
0 215 0 215 81 0 c44 0 101 -5 126 -11z"/>
<path d="M2433 1733 c-62 -142 -115 -266 -119 -275 -5 -15 0 -18 28 -18 33 0
36 3 60 63 l26 62 143 0 143 0 25 -62 c24 -62 25 -63 63 -63 l38 0 -15 38 c-9
20 -61 144 -117 275 -101 237 -101 237 -132 237 -31 0 -31 0 -143 -257z m197
37 c28 -68 50 -127 50 -132 0 -4 -49 -8 -110 -8 -60 0 -110 2 -110 4 0 2 20
52 45 110 25 58 50 117 55 132 6 15 13 25 15 22 3 -3 28 -60 55 -128z"/>
<path d="M2920 1716 l0 -276 30 0 30 0 2 228 3 227 159 -227 160 -228 43 0 43
0 0 275 0 275 -35 0 -35 0 -2 -227 -3 -228 -155 225 -156 225 -42 3 -42 3 0
-275z"/>
<path d="M3470 1960 l0 -30 90 0 90 0 0 -245 0 -245 30 0 30 0 0 245 0 245 95
0 95 0 0 30 0 30 -215 0 -215 0 0 -30z"/>
<path d="M3988 1773 c-53 -120 -108 -244 -122 -275 l-26 -58 39 0 c37 0 38 1
62 63 l25 62 141 3 141 3 28 -66 c28 -63 29 -65 65 -65 l37 0 -62 148 c-35 81
-87 204 -117 274 -53 124 -55 128 -85 128 -31 0 -31 -1 -126 -217z m182 -6
c27 -70 50 -129 50 -132 0 -3 -50 -5 -111 -5 -127 0 -121 -10 -68 112 16 37
38 88 49 114 11 26 22 45 25 42 2 -2 27 -61 55 -131z"/>
</g>
</svg>
